<?xml version="1.0" standalone="no"?>
<!DOCTYPE svg PUBLIC "-//W3C//DTD SVG 20010904//EN"
 "http://www.w3.org/TR/2001/REC-SVG-20010904/DTD/svg10.dtd">
<svg version="1.0" xmlns="http://www.w3.org/2000/svg"
 width="30.000000pt" height="30.000000pt" viewBox="0 0 30.000000 30.000000"
 preserveAspectRatio="xMidYMid meet">
<metadata>
Created by potrace 1.10, written by Peter Selinger 2001-2011
</metadata>
<g transform="translate(0.000000,30.000000) scale(0.100000,-0.100000)"
fill="#000000" stroke="none">
<path d="M128 248 c-8 -21 2 -38 22 -38 19 0 30 17 23 38 -3 6 -13 12 -23 12
-10 0 -20 -6 -22 -12z"/>
<path d="M34 235 c-4 -9 -2 -21 4 -27 15 -15 44 -1 40 19 -4 23 -36 29 -44 8z"/>
<path d="M224 235 c-4 -9 -2 -21 4 -27 15 -15 44 -1 40 19 -4 23 -36 29 -44 8z"/>
<path d="M122 178 c-6 -6 -12 -18 -12 -25 0 -21 -27 -15 -33 8 -4 13 -12 20
-24 17 -14 -3 -18 -13 -18 -48 0 -42 2 -45 30 -50 21 -4 31 -11 33 -28 5 -33
22 -27 22 9 0 22 -5 32 -20 36 -43 11 -17 23 50 23 40 0 70 -4 70 -10 0 -5 -9
-10 -20 -10 -16 0 -20 -7 -20 -35 0 -39 17 -48 22 -13 2 17 12 24 33 28 28 5
30 8 30 50 0 35 -4 45 -18 48 -12 3 -20 -4 -24 -17 -7 -28 -26 -27 -38 2 -11
25 -44 34 -63 15z"/>
</g>
</svg>
